# xmcd
#
# Track frame offsets:
# 150
# 11729
# 28165
# 41372
# 52980
# 65223
# 78706
# 93167
# 106039
# 118016
# 128549
# 141996
# 153154
# 164939
#
# Disc length: 2332 seconds
#
#
# Revision: 0
# Processed by: cddbd v1.5.2PL0 Copyright (c) Steve Scherf et al.
# Submitted via: FreeRIP 2.80 
#
DISCID=ba091a0e
DTITLE=Freddy Fender - After the Fire is Gone
DYEAR=2000
DGENRE=Country
TTITLE0=Before The Next Teardrop Falls
TTITLE1=Secret Love
TTITLE2=You'll Lose A Good Thing
TTITLE3=Livin' It Down
TTITLE4=Wasted Days And Wasted Nights
TTITLE5=After The Fire Is Gone
TTITLE6=Roses Are Red
TTITLE7=I Love My Rancho Grande
TTITLE8=Lover Quarrel
TTITLE9=You Don't Have To Go
TTITLE10=Whip It On Me
TTITLE11=Wasted Days, Wasted Nights
TTITLE12=Donna
TTITLE13=Never Trust A Cheatin' Woman
EXTD=
EXTT0=
EXTT1=
EXTT2=
EXTT3=
EXTT4=
EXTT5=
EXTT6=
EXTT7=
EXTT8=
EXTT9=
EXTT10=
EXTT11=
EXTT12=
EXTT13=
PLAYORDER=
